<svg fill="#783c55" xmlns="http://www.w3.org/2000/svg" viewBox="4 4 22 22"><path d="M17.772 19.649c0-.485-.029-.865-.088-1.139-.059-.273-.155-.471-.286-.594s-.313-.184-.544-.184c-.18 0-.347.051-.502.152-.156.101-.276.234-.361.399h-.007V16h-.94v6.151h.806l.099-.41h.021c.076.147.188.262.34.347.151.084.318.127.502.127.33 0 .572-.152.728-.456.156-.304.234-.779.234-1.425h-.001V19.649zM16.79 20.278c0 .316-.013.564-.039.742-.026.18-.069.307-.131.382s-.143.113-.247.113c-.081 0-.155-.02-.223-.057-.068-.038-.124-.094-.166-.17v-2.46c.033-.117.09-.214.17-.29.08-.076.167-.113.261-.113.1 0 .176.039.23.116.053.077.092.209.113.393.021.184.032.445.032.785V20.278zM13.48 21.26c-.038.08-.095.147-.173.198-.077.052-.159.078-.244.078-.1 0-.17-.041-.212-.124-.043-.082-.064-.22-.064-.413v-3.182H11.81v3.238c0 .4.068.695.205.884.137.188.348.283.636.283.415 0 .726-.2.934-.602h.021l.084.531h.764.001v-4.334H13.48V21.26zM14.47 12.547c.161-.001.275-.084.339-.252.064-.167.096-.441.096-.82v-1.6c0-.369-.032-.638-.096-.808-.064-.171-.178-.255-.34-.255-.156 0-.267.085-.331.255-.064.171-.096.44-.096.808v1.6c0 .38.03.653.092.82C14.196 12.462 14.308 12.547 14.47 12.547z"/><path d="M12.101 16.22L9.21 16.22 9.21 17.004 10.179 17.004 10.179 22.151 11.132 22.151 11.132 17.004 12.101 17.004z"/><path d="M24,4H6C4.895,4,4,4.895,4,6v18c0,1.105,0.895,2,2,2h18c1.105,0,2-0.895,2-2V6C26,4.895,25.105,4,24,4z M16.669,8.116h1.156v3.769c0,0.229,0.025,0.392,0.076,0.49s0.134,0.147,0.252,0.147c0.1,0,0.196-0.03,0.289-0.092c0.092-0.061,0.161-0.14,0.205-0.235V8.116h1.155v5.134h-0.905l-0.1-0.628h-0.025c-0.245,0.475-0.614,0.712-1.105,0.712c-0.34,0-0.592-0.112-0.754-0.335c-0.162-0.223-0.243-0.572-0.243-1.047V8.116z M13.56,8.245c0.237-0.154,0.548-0.23,0.934-0.23c0.38,0,0.684,0.078,0.913,0.235c0.229,0.156,0.396,0.401,0.502,0.732c0.106,0.332,0.159,0.775,0.159,1.327v0.746c0,0.548-0.052,0.987-0.155,1.319c-0.103,0.332-0.271,0.575-0.502,0.729c-0.231,0.154-0.546,0.23-0.942,0.23c-0.407,0-0.727-0.078-0.959-0.235c-0.232-0.156-0.396-0.399-0.494-0.729s-0.147-0.768-0.147-1.315v-0.746c0-0.553,0.056-0.996,0.167-1.332C13.148,8.643,13.323,8.398,13.56,8.245z M10.529,6.222l0.46,2.153c0.117,0.53,0.204,0.982,0.26,1.356h0.034c0.039-0.268,0.125-0.717,0.26-1.348l0.477-2.161h1.148l-1.332,4.749v2.278h-1.14v-2.278L9.381,6.222H10.529z M23,22.222C23,23.2,22.2,24,21.222,24H8.778C7.8,24,7,23.2,7,22.222V16c0-0.978,0.8-1.778,1.778-1.778h12.444C22.2,14.222,23,15.022,23,16V22.222z"/><path d="M20.789,20.309v-0.743c0-0.457-0.036-0.815-0.109-1.075c-0.074-0.259-0.2-0.45-0.379-0.572c-0.18-0.123-0.436-0.184-0.771-0.184c-0.485,0-0.828,0.149-1.028,0.449c-0.2,0.3-0.3,0.774-0.3,1.425v0.757c0,0.632,0.096,1.099,0.29,1.4c0.194,0.301,0.531,0.452,1.012,0.452c0.401,0,0.71-0.099,0.93-0.297c0.22-0.197,0.329-0.497,0.329-0.898c0-0.066-0.003-0.118-0.007-0.156l-0.842-0.05c-0.004,0.264-0.034,0.452-0.088,0.565c-0.054,0.113-0.155,0.17-0.3,0.17c-0.108,0-0.188-0.031-0.24-0.095c-0.052-0.063-0.085-0.165-0.102-0.304c-0.017-0.139-0.025-0.348-0.025-0.626v-0.22H20.789z M19.156,19.73v-0.311c0-0.283,0.008-0.494,0.025-0.633c0.016-0.139,0.049-0.239,0.099-0.3c0.05-0.06,0.126-0.092,0.23-0.092c0.104,0,0.18,0.029,0.23,0.088c0.05,0.059,0.084,0.16,0.101,0.304c0.019,0.144,0.028,0.355,0.028,0.633v0.311H19.156z"/></svg>