<?xml version="1.0" encoding="utf-8"?><svg xml:space="preserve" viewBox="0 0 100 100" y="0" x="0" xmlns="http://www.w3.org/2000/svg" id="圖層_1" version="1.1" width="571px" height="571px" xmlns:xlink="http://www.w3.org/1999/xlink" style="width:100%;height:100%;animation-play-state:paused" ><g class="ldl-scale" style="transform-origin:50% 50% 0px;transform:rotate(0deg) scale(1);animation-play-state:paused" ><path stroke-linecap="round" stroke-width="3.347" stroke="#333" fill="#e0e0e0" d="M72.2 83.5H16.8c-3.2 0-5.8-2.6-5.8-5.8V22.3c0-3.2 2.6-5.8 5.8-5.8h55.4c3.2 0 5.8 2.6 5.8 5.8v55.4c-.1 3.2-2.6 5.8-5.8 5.8z" style="stroke:rgb(120, 60, 85);fill:rgb(252, 167, 188);animation-play-state:paused" ></path>
<path stroke-width="2.672" stroke="#333" fill="#666" d="M87.3 26.8H51.8c-1.5 0-2.3 1.8-1.2 2.9l12.5 12.5-22 22 10.5 10.5 22-22 12.5 12.5c1.1 1.1 2.9.3 2.9-1.2V28.5c0-.9-.8-1.7-1.7-1.7z" style="stroke:rgb(120, 60, 85);fill:rgb(120, 60, 85);animation-play-state:paused" ></path>
<metadata xmlns:d="https://loading.io/stock/" style="animation-play-state:paused" ><d:name style="animation-play-state:paused" >external link,share,open,new tab,out,arrow,leave,part</d:name>


<d:tags style="animation-play-state:paused" >cc-by,external link,share,open,new tab,out,arrow,leave,part</d:tags>


<d:license style="animation-play-state:paused" >by</d:license>


<d:slug style="animation-play-state:paused" >ya3dvt</d:slug></metadata></g><!-- generated by https://loading.io/ --></svg>