<?xml version="1.0" encoding="utf-8"?>
<svg xml:space="preserve" viewBox="0 0 100 100" y="0px" x="0px" xmlns:xlink="http://www.w3.org/1999/xlink" xmlns="http://www.w3.org/2000/svg" id="圖層_1" version="1.1" style="height: 100%; width: 100%; background: rgba(0, 0, 0, 0) none repeat scroll 0% 0%; shape-rendering: auto;" width="271px" height="271px"><g style="transform-origin: 50% 50% 0px; transform: rotate(0deg) scale(1);" class="ldl-scale"><g class="ldl-ani"><g class="ldl-layer"><g class="ldl-ani" style="transform-origin: 49.1px 53px 0px;"><g><g class="ldl-layer"><g class="ldl-ani" style="transform-origin: 37.8px 64px 0px; opacity: 1; animation: 14.2857s linear -3.57143s infinite normal forwards running damage-343c7a51-69aa-4fb4-a1de-8c43b1040185;"><path d="M37.8,84.8C33.6,75.2,26.6,68.1,17,63.6 c9.8-3.8,16.7-10.6,20.8-20.4C42,52.9,48.9,59.9,58.6,64C48.9,68.2,42,75.1,37.8,84.8z" stroke-miterlimit="10" stroke-width="3.5" stroke="#333435" fill="#F5E169" style="fill: rgb(242, 222, 148); stroke: rgb(223, 95, 255);"></path></g></g><g class="ldl-layer"><g class="ldl-ani" style="transform-origin: 67.9px 34.45px 0px; opacity: 1; animation: 14.2857s linear -7.14286s infinite normal forwards running damage-343c7a51-69aa-4fb4-a1de-8c43b1040185;"><path d="M67.9,47.7c-2.7-6.2-7.1-10.7-13.3-13.5 c6.3-2.4,10.6-6.8,13.3-13c2.7,6.2,7.1,10.6,13.3,13.3C75,37.1,70.6,41.6,67.9,47.7z" stroke-miterlimit="10" stroke-width="3.5" stroke="#333435" fill="#F5E169" style="fill: rgb(242, 222, 148); stroke: rgb(223, 95, 255);"></path></g></g></g></g></g><g class="ldl-layer"><g class="ldl-ani" style="transform-origin: 50px 48.4px 0px;"><g><g class="ldl-layer"><g class="ldl-ani" style="transform-origin: 28.4px 26.6px 0px; opacity: 1; animation: 14.2857s linear -10.7143s infinite normal forwards running damage-343c7a51-69aa-4fb4-a1de-8c43b1040185;"><path d="M28.4,38c-2.3-5.3-6.2-9.2-11.4-11.6 c5.4-2.1,9.2-5.8,11.4-11.2c2.3,5.3,6.1,9.1,11.4,11.4C34.5,28.9,30.7,32.7,28.4,38z" stroke-miterlimit="10" stroke-width="3.5" stroke="#333435" fill="#F5E169" style="fill: rgb(242, 222, 148); stroke: rgb(223, 95, 255);"></path></g></g><g class="ldl-layer"><g class="ldl-ani" style="transform-origin: 73.8px 72.4px 0px; opacity: 1; animation: 14.2857s linear -14.2857s infinite normal forwards running damage-343c7a51-69aa-4fb4-a1de-8c43b1040185;"><path d="M73.8,81.6c-1.9-4.3-5-7.4-9.2-9.4 c4.3-1.7,7.4-4.7,9.2-9c1.8,4.3,4.9,7.4,9.2,9.2C78.7,74.3,75.6,77.3,73.8,81.6z" stroke-miterlimit="10" stroke-width="3.5" stroke="#333435" fill="#F5E169" style="fill: rgb(242, 222, 148); stroke: rgb(223, 95, 255);"></path></g></g></g></g></g><metadata xmlns:d="https://loading.io/stock/">
<d:name>star</d:name>
<d:tags>star,bright,flash,blink,twinkle,brilliant,radiant</d:tags>
<d:license>by</d:license>
<d:slug>w1r20q</d:slug>
</metadata></g></g><style id="damage-343c7a51-69aa-4fb4-a1de-8c43b1040185" data-anikit="">@keyframes damage-343c7a51-69aa-4fb4-a1de-8c43b1040185
{
  0% {
    animation-timing-function: cubic-bezier(0.1916,0.3481,0.5313,2.0622);
    opacity: 1;
  }
  21% {
    animation-timing-function: cubic-bezier(0.0461,0.1237,0.4559,1.8579);
    opacity: 0.42200000000000004;
  }
  29% {
    animation-timing-function: cubic-bezier(0.0468,0.1254,0.4564,1.8559);
    opacity: 1.462;
  }
  37% {
    animation-timing-function: cubic-bezier(0.0479,0.1283,0.457,1.856);
    opacity: 0.63;
  }
  45% {
    animation-timing-function: cubic-bezier(0.0487,0.1306,0.457,1.8506);
    opacity: 1.296;
  }
  53% {
    animation-timing-function: cubic-bezier(0.0515,0.1383,0.4591,1.8571);
    opacity: 0.763;
  }
  61% {
    animation-timing-function: cubic-bezier(0.0556,0.1484,0.4608,1.846);
    opacity: 1.189;
  }
  69% {
    animation-timing-function: cubic-bezier(0.0595,0.1602,0.4632,1.8456);
    opacity: 0.848;
  }
  77% {
    animation-timing-function: cubic-bezier(0.0689,0.1849,0.4698,1.8391);
    opacity: 1.121;
  }
  85% {
    animation-timing-function: cubic-bezier(0.0794,0.2133,0.4765,1.8226);
    opacity: 0.903;
  }
  93% {
    animation-timing-function: cubic-bezier(0.1486,0.2692,0.2335,0.855);
    opacity: 1.078;
  }
  100% {
    opacity: 0.893;
  }
}</style><!-- [ldio] generated by https://loading.io/ --></svg>